<svg width="214" height="144" viewBox="0 0 214 144" fill="none" xmlns="http://www.w3.org/2000/svg">
<rect width="214" height="144" rx="34" fill="white"/>
<path d="M150.54 54.5878C145.08 54.5878 140.06 56.4378 136.06 59.5578V40.0078H126.95V101.778H136.06V96.8078C140.06 99.9178 145.08 101.778 150.54 101.778C163.57 101.778 174.13 91.2178 174.13 78.1878C174.13 65.1478 163.57 54.5878 150.54 54.5878ZM160.78 88.4178C158.04 91.1578 154.41 92.6578 150.54 92.6578C146.67 92.6578 143.04 91.1478 140.3 88.4178C137.56 85.6878 136.06 82.0478 136.06 78.1778C136.06 74.3078 137.57 70.6778 140.3 67.9378C143.04 65.1978 146.67 63.6978 150.54 63.6978C154.41 63.6978 158.04 65.2078 160.78 67.9378C163.52 70.6778 165.02 74.3078 165.02 78.1778C165.02 82.0478 163.51 85.6878 160.78 88.4178Z" fill="#00C8FA"/>
<path d="M120.001 40.0078H110.891V101.778H120.001V40.0078Z" fill="#00C8FA"/>
<path d="M94.9303 40.01V44.99C93.1603 43.82 91.0903 43 88.8203 42.57C85.5803 41.95 81.9403 42.12 78.0203 43.04C74.1103 43.97 70.1403 45.6 66.1903 47.92C62.1003 50.32 58.2303 53.33 54.6803 56.88C51.1303 60.43 48.1202 64.3 45.7202 68.39C43.4102 72.34 41.7702 76.32 40.8402 80.22C39.9102 84.14 39.7503 87.78 40.3703 91.02C41.0003 94.35 42.4703 97.24 44.6203 99.39C46.7703 101.54 49.6703 103.01 52.9903 103.64C54.2803 103.89 55.6302 104.01 57.0402 104.01C59.1702 104.01 61.4302 103.73 63.8002 103.17C67.7102 102.24 71.6803 100.61 75.6303 98.29C79.7203 95.89 83.5903 92.88 87.1403 89.33C90.1403 86.33 92.7603 83.1 94.9403 79.7V101.78H104.01V40H94.9303V40.01ZM92.1403 63.9C91.4303 66.89 90.0903 70.11 88.2603 73.24C86.2603 76.66 83.7203 79.92 80.7103 82.91C77.7003 85.91 74.4502 88.45 71.0302 90.45C67.9102 92.28 64.6803 93.62 61.6903 94.33C56.9003 95.46 53.0203 94.96 51.0203 92.96C49.0203 90.96 48.5303 87.07 49.6503 82.29C50.3603 79.3 51.7002 76.08 53.5302 72.95C55.5302 69.53 58.0703 66.27 61.0803 63.28C64.0903 60.28 67.3403 57.74 70.7603 55.74C73.8803 53.91 77.1102 52.57 80.1002 51.86C81.7802 51.46 83.3602 51.26 84.7802 51.26C87.3902 51.26 89.4802 51.93 90.7802 53.22C92.7802 55.22 93.2803 59.12 92.1403 63.9Z" fill="#00C8FA"/>
</svg>
